<svg width="40" height="40" viewBox="0 0 40 40" fill="none" xmlns="http://www.w3.org/2000/svg">
<g clip-path="url(#clip0_131_319)">
<rect width="40" height="40" fill="#F3F5FB"/>
<path fill-rule="evenodd" clip-rule="evenodd" d="M27 12H26V10H24V12H16V10H14V12H13C11.89 12 11 12.9 11 14V28C11 29.1 11.89 30 13 30H27C28.1 30 29 29.1 29 28V14C29 12.9 28.1 12 27 12ZM27 28H13V17H27V28ZM14.5 21C14.5 19.62 15.62 18.5 17 18.5C18.38 18.5 19.5 19.62 19.5 21C19.5 22.38 18.38 23.5 17 23.5C15.62 23.5 14.5 22.38 14.5 21Z" fill="#373960"/>
</g>
<defs>
<clipPath id="clip0_131_319">
<rect width="40" height="40" rx="20" fill="white"/>
</clipPath>
</defs>
</svg>
