<svg width="18" height="18" viewBox="0 0 18 18" fill="none" xmlns="http://www.w3.org/2000/svg">
<path d="M8.9915 0.666504C4.3915 0.666504 0.666504 4.39984 0.666504 8.99984C0.666504 13.5998 4.3915 17.3332 8.9915 17.3332C13.5998 17.3332 17.3332 13.5998 17.3332 8.99984C17.3332 4.39984 13.5998 0.666504 8.9915 0.666504ZM8.99984 15.6665C5.3165 15.6665 2.33317 12.6832 2.33317 8.99984C2.33317 5.3165 5.3165 2.33317 8.99984 2.33317C12.6832 2.33317 15.6665 5.3165 15.6665 8.99984C15.6665 12.6832 12.6832 15.6665 8.99984 15.6665ZM9.4165 4.83317H8.1665V9.83317L12.5415 12.4582L13.1665 11.4332L9.4165 9.20817V4.83317Z" fill="#0A0A0B"/>
</svg>
