<svg width="18" height="18" viewBox="0 0 18 18" fill="none" xmlns="http://www.w3.org/2000/svg">
<path d="M12.5332 5.4665C11.5582 4.4915 10.2832 3.99984 8.99984 3.99984V8.99984L5.4665 12.5332C7.4165 14.4832 10.5832 14.4832 12.5415 12.5332C14.4915 10.5832 14.4915 7.4165 12.5332 5.4665ZM8.99984 0.666504C4.39984 0.666504 0.666504 4.39984 0.666504 8.99984C0.666504 13.5998 4.39984 17.3332 8.99984 17.3332C13.5998 17.3332 17.3332 13.5998 17.3332 8.99984C17.3332 4.39984 13.5998 0.666504 8.99984 0.666504ZM8.99984 15.6665C5.3165 15.6665 2.33317 12.6832 2.33317 8.99984C2.33317 5.3165 5.3165 2.33317 8.99984 2.33317C12.6832 2.33317 15.6665 5.3165 15.6665 8.99984C15.6665 12.6832 12.6832 15.6665 8.99984 15.6665Z" fill="#0A0A0B"/>
</svg>
