<svg width="20" height="20" viewBox="0 0 20 20" fill="none" xmlns="http://www.w3.org/2000/svg">
<path d="M14.2426 7.17162L12.8284 5.7574L10 8.58583L7.17157 5.7574L5.75736 7.17162L8.58579 10L5.75736 12.8285L7.17157 14.2427L10 11.4143L12.8284 14.2427L14.2426 12.8285L11.4142 10L14.2426 7.17162ZM17.0711 2.92898C13.1678 -0.974252 6.83216 -0.974252 2.92893 2.92898C-0.974297 6.83221 -0.974297 13.1679 2.92893 17.0711C6.83216 20.9743 13.1678 20.9743 17.0711 17.0711C20.9743 13.1679 20.9743 6.83221 17.0711 2.92898ZM4.34315 15.6569C1.22481 12.5386 1.22481 7.46153 4.34315 4.34319C7.46149 1.22485 12.5385 1.22485 15.6569 4.34319C18.7752 7.46153 18.7752 12.5386 15.6569 15.6569C12.5385 18.7752 7.46149 18.7752 4.34315 15.6569Z" fill="#373960"/>
</svg>
