<svg width="26" height="26" viewBox="0 0 26 26" fill="none" xmlns="http://www.w3.org/2000/svg">
<path d="M13.0003 2.89453C7.41965 2.89453 2.89502 7.41916 2.89502 12.9998C2.89502 18.5804 7.41965 23.1051 13.0003 23.1051C18.5809 23.1051 23.1055 18.5804 23.1055 12.9998C23.1055 7.41916 18.5809 2.89453 13.0003 2.89453ZM9.20744 7.44443C9.91649 7.44443 10.3889 7.91685 10.3889 8.54674C10.3889 9.17664 9.91649 9.64906 9.12912 9.64906C8.42007 9.6499 7.94765 9.17664 7.94765 8.54674C7.94765 7.91685 8.42007 7.44443 9.20744 7.44443ZM10.474 17.2103H7.94765V10.4735H10.474V17.2103ZM18.895 17.2103H16.5169V13.5286C16.5169 12.5105 15.8828 12.2756 15.6453 12.2756C15.4079 12.2756 14.6146 12.4322 14.6146 13.5286C14.6146 13.6853 14.6146 17.2103 14.6146 17.2103H12.1582V10.4735H14.6154V11.4133C14.9321 10.8651 15.5662 10.4735 16.7552 10.4735C17.9443 10.4735 18.895 11.4133 18.895 13.5286V17.2103Z" fill="white"/>
</svg>
