<svg width="40" height="40" viewBox="0 0 40 40" fill="none" xmlns="http://www.w3.org/2000/svg">
<g clip-path="url(#clip0_36_39509)">
<rect width="40" height="40" fill="#F3F5FB"/>
<path d="M20 10C16.13 10 13 13.13 13 17C13 22.25 20 30 20 30C20 30 27 22.25 27 17C27 13.13 23.87 10 20 10ZM15 17C15 14.24 17.24 12 20 12C22.76 12 25 14.24 25 17C25 19.88 22.12 24.19 20 26.88C17.92 24.21 15 19.85 15 17Z" fill="#373960"/>
<path d="M20 19.5C21.3807 19.5 22.5 18.3807 22.5 17C22.5 15.6193 21.3807 14.5 20 14.5C18.6193 14.5 17.5 15.6193 17.5 17C17.5 18.3807 18.6193 19.5 20 19.5Z" fill="#373960"/>
</g>
<defs>
<clipPath id="clip0_36_39509">
<rect width="40" height="40" rx="20" fill="white"/>
</clipPath>
</defs>
</svg>
