<svg width="20" height="20" viewBox="0 0 20 20" fill="none" xmlns="http://www.w3.org/2000/svg">
<rect width="20" height="20" fill="#0c63e400"/>
<g clip-path="url(#clip0_0_1)">
<rect width="1440" height="3841" transform="translate(-799 -280)" fill="#0c63e400"/>
<g filter="url(#filter0_d_0_1)">
<path d="M-643 -50C-643 -55.5228 -638.523 -60 -633 -60H475C480.523 -60 485 -55.5228 485 -50V118C485 123.523 480.523 128 475 128H-633C-638.523 128 -643 123.523 -643 118V-50Z" fill="#0c63e400" shape-rendering="crispEdges"/>
<path d="M15.4168 0.833496V3.3335H17.9168V5.00016H15.4168V7.50016H13.7502V5.00016H11.2502V3.3335H13.7502V0.833496H15.4168ZM8.75016 10.8335C9.66683 10.8335 10.4168 10.0835 10.4168 9.16683C10.4168 8.25016 9.66683 7.50016 8.75016 7.50016C7.8335 7.50016 7.0835 8.25016 7.0835 9.16683C7.0835 10.0835 7.8335 10.8335 8.75016 10.8335ZM10.4168 2.7085V5.8335H12.9168V8.3335H15.3502C15.3918 8.6585 15.4168 8.99183 15.4168 9.3335C15.4168 12.1002 13.1918 15.3752 8.75016 19.1668C4.3085 15.3752 2.0835 12.1002 2.0835 9.3335C2.0835 5.1835 5.25016 2.50016 8.75016 2.50016C9.31683 2.50016 9.87516 2.56683 10.4168 2.7085Z" fill="#0A0A0B"/>
</g>
</g>
<defs>
<filter id="filter0_d_0_1" x="-653" y="-66" width="1148" height="208" filterUnits="userSpaceOnUse" color-interpolation-filters="sRGB">
<feFlood flood-opacity="0" result="BackgroundImageFix"/>
<feColorMatrix in="SourceAlpha" type="matrix" values="0 0 0 0 0 0 0 0 0 0 0 0 0 0 0 0 0 0 127 0" result="hardAlpha"/>
<feOffset dy="4"/>
<feGaussianBlur stdDeviation="5"/>
<feComposite in2="hardAlpha" operator="out"/>
<feColorMatrix type="matrix" values="0 0 0 0 0.0588235 0 0 0 0 0.0901961 0 0 0 0 0.164706 0 0 0 0.08 0"/>
<feBlend mode="normal" in2="BackgroundImageFix" result="effect1_dropShadow_0_1"/>
<feBlend mode="normal" in="SourceGraphic" in2="effect1_dropShadow_0_1" result="shape"/>
</filter>
<clipPath id="clip0_0_1">
<rect width="1440" height="3841" fill="#0c63e400" transform="translate(-799 -280)"/>
</clipPath>
</defs>
</svg>
