<svg width="12" height="18" viewBox="0 0 12 18" fill="none" xmlns="http://www.w3.org/2000/svg">
<path d="M5.99984 0.666504C2.77484 0.666504 0.166504 3.27484 0.166504 6.49984C0.166504 10.8748 5.99984 17.3332 5.99984 17.3332C5.99984 17.3332 11.8332 10.8748 11.8332 6.49984C11.8332 3.27484 9.22484 0.666504 5.99984 0.666504ZM1.83317 6.49984C1.83317 4.19984 3.69984 2.33317 5.99984 2.33317C8.29984 2.33317 10.1665 4.19984 10.1665 6.49984C10.1665 8.89984 7.7665 12.4915 5.99984 14.7332C4.2665 12.5082 1.83317 8.87484 1.83317 6.49984Z" fill="#0A0A0B"/>
<path d="M5.99984 8.58317C7.15043 8.58317 8.08317 7.65043 8.08317 6.49984C8.08317 5.34924 7.15043 4.4165 5.99984 4.4165C4.84924 4.4165 3.9165 5.34924 3.9165 6.49984C3.9165 7.65043 4.84924 8.58317 5.99984 8.58317Z" fill="#0A0A0B"/>
</svg>
