<svg width="18" height="18" viewBox="0 0 18 18" fill="none" xmlns="http://www.w3.org/2000/svg">
<path d="M14.25 11.385V5.25C14.25 3.5925 12.9075 2.25 11.25 2.25C9.5925 2.25 8.25 3.5925 8.25 5.25V12.75C8.25 13.575 7.575 14.25 6.75 14.25C5.925 14.25 5.25 13.575 5.25 12.75V6.615C6.12 6.3 6.75 5.475 6.75 4.5C6.75 3.255 5.745 2.25 4.5 2.25C3.255 2.25 2.25 3.255 2.25 4.5C2.25 5.475 2.88 6.3 3.75 6.615V12.75C3.75 14.4075 5.0925 15.75 6.75 15.75C8.4075 15.75 9.75 14.4075 9.75 12.75V5.25C9.75 4.425 10.425 3.75 11.25 3.75C12.075 3.75 12.75 4.425 12.75 5.25V11.385C11.88 11.6925 11.25 12.5175 11.25 13.5C11.25 14.745 12.255 15.75 13.5 15.75C14.745 15.75 15.75 14.745 15.75 13.5C15.75 12.525 15.12 11.7 14.25 11.385ZM4.5 5.25C4.0875 5.25 3.75 4.9125 3.75 4.5C3.75 4.0875 4.0875 3.75 4.5 3.75C4.9125 3.75 5.25 4.0875 5.25 4.5C5.25 4.9125 4.9125 5.25 4.5 5.25ZM13.5 14.25C13.0875 14.25 12.75 13.9125 12.75 13.5C12.75 13.0875 13.0875 12.75 13.5 12.75C13.9125 12.75 14.25 13.0875 14.25 13.5C14.25 13.9125 13.9125 14.25 13.5 14.25Z" fill="white"/>
</svg>
