<svg width="22" height="22" viewBox="0 0 22 22" fill="none" xmlns="http://www.w3.org/2000/svg">
<path d="M10.125 12.2255V0.383789H11.875V12.2255H10.125ZM11 21.5588C9.56111 21.5588 8.20486 21.2817 6.93125 20.7275C5.65764 20.1734 4.54444 19.4199 3.59167 18.4671C2.63889 17.5143 1.88542 16.4011 1.33125 15.1275C0.777083 13.8539 0.5 12.4977 0.5 11.0588C0.5 9.50323 0.830555 8.04976 1.49167 6.69837C2.15278 5.34698 3.08611 4.14629 4.29167 3.09629L5.51667 4.32129C4.48611 5.1574 3.68403 6.15393 3.11042 7.31087C2.53681 8.46782 2.25 9.71712 2.25 11.0588C2.25 13.4893 3.10069 15.5553 4.80208 17.2567C6.50347 18.9581 8.56944 19.8088 11 19.8088C13.4306 19.8088 15.4965 18.9581 17.1979 17.2567C18.8993 15.5553 19.75 13.4893 19.75 11.0588C19.75 9.71712 19.4632 8.45809 18.8896 7.28171C18.316 6.10532 17.5333 5.11851 16.5417 4.32129L17.7958 3.09629C18.9625 4.08796 19.8715 5.27407 20.5229 6.65462C21.1743 8.03518 21.5 9.50323 21.5 11.0588C21.5 12.4977 21.2229 13.8539 20.6687 15.1275C20.1146 16.4011 19.366 17.5143 18.4229 18.4671C17.4799 19.4199 16.3715 20.1734 15.0979 20.7275C13.8243 21.2817 12.4583 21.5588 11 21.5588Z" fill="white"/>
</svg>
