<svg width="12" height="18" viewBox="0 0 12 18" fill="none" xmlns="http://www.w3.org/2000/svg">
<path d="M3.9165 13.9998H2.6665V6.49984H3.9165V13.9998ZM6.62484 13.9998H5.37484V6.49984H6.62484V13.9998ZM9.33317 13.9998H8.08317V6.49984H9.33317V13.9998ZM10.1665 3.99984H8.49984V1.49984C8.49984 1.0415 8.12484 0.666504 7.6665 0.666504H4.33317C3.87484 0.666504 3.49984 1.0415 3.49984 1.49984V3.99984H1.83317C0.916504 3.99984 0.166504 4.74984 0.166504 5.6665V14.8332C0.166504 15.7498 0.916504 16.4998 1.83317 16.4998C1.83317 16.9582 2.20817 17.3332 2.6665 17.3332C3.12484 17.3332 3.49984 16.9582 3.49984 16.4998H8.49984C8.49984 16.9582 8.87484 17.3332 9.33317 17.3332C9.7915 17.3332 10.1665 16.9582 10.1665 16.4998C11.0832 16.4998 11.8332 15.7498 11.8332 14.8332V5.6665C11.8332 4.74984 11.0832 3.99984 10.1665 3.99984ZM4.74984 1.9165H7.24984V3.99984H4.74984V1.9165ZM10.1665 14.8332H1.83317V5.6665H10.1665V14.8332Z" fill="#0A0A0B"/>
</svg>
