<svg width="26" height="26" viewBox="0 0 26 26" fill="none" xmlns="http://www.w3.org/2000/svg">
<path d="M13.0003 2.89453C7.41965 2.89453 2.89502 7.41916 2.89502 12.9998C2.89502 18.5804 7.41965 23.1051 13.0003 23.1051C18.5809 23.1051 23.1055 18.5804 23.1055 12.9998C23.1055 7.41916 18.5809 2.89453 13.0003 2.89453ZM18.4437 10.924C18.4487 11.036 18.4512 11.1472 18.4512 11.2583C18.4512 14.684 15.8449 18.6318 11.0778 18.6318C9.61334 18.6318 8.25165 18.2032 7.10555 17.4672C7.30849 17.4916 7.51481 17.5025 7.72449 17.5025C8.93965 17.5025 10.0563 17.0891 10.9422 16.3926C9.80786 16.3716 8.85039 15.6221 8.52112 14.5931C8.67944 14.6234 8.84197 14.6394 9.0087 14.6394C9.24534 14.6394 9.47523 14.6074 9.69165 14.5484C8.50597 14.311 7.61249 13.2634 7.61249 12.0078C7.61249 11.9968 7.61249 11.9859 7.61249 11.975C7.96197 12.1695 8.36112 12.2857 8.78639 12.2992C8.09165 11.8352 7.63355 11.0411 7.63355 10.1425C7.63355 9.66674 7.7607 9.22127 7.98386 8.83979C9.26218 10.4078 11.1721 11.4402 13.3253 11.548C13.2815 11.3585 13.2588 11.1606 13.2588 10.9577C13.2588 9.52695 14.4192 8.36569 15.85 8.36569C16.5952 8.36569 17.2689 8.68064 17.7413 9.18422C18.3316 9.06716 18.8866 8.85243 19.3876 8.55516C19.194 9.16064 18.783 9.66758 18.2474 9.98927C18.7712 9.92695 19.2706 9.788 19.7363 9.58169C19.3902 10.1021 18.9514 10.5577 18.4437 10.924Z" fill="white"/>
</svg>
