<svg width="18" height="12" viewBox="0 0 18 12" fill="none" xmlns="http://www.w3.org/2000/svg">
<path d="M6.49984 7.45817C4.54984 7.45817 0.666504 8.43317 0.666504 10.3748V11.8332H12.3332V10.3748C12.3332 8.43317 8.44984 7.45817 6.49984 7.45817ZM2.6165 10.1665C3.3165 9.68317 5.00817 9.12484 6.49984 9.12484C7.9915 9.12484 9.68317 9.68317 10.3832 10.1665H2.6165ZM6.49984 5.99984C8.10817 5.99984 9.4165 4.6915 9.4165 3.08317C9.4165 1.47484 8.10817 0.166504 6.49984 0.166504C4.8915 0.166504 3.58317 1.47484 3.58317 3.08317C3.58317 4.6915 4.8915 5.99984 6.49984 5.99984ZM6.49984 1.83317C7.1915 1.83317 7.74984 2.3915 7.74984 3.08317C7.74984 3.77484 7.1915 4.33317 6.49984 4.33317C5.80817 4.33317 5.24984 3.77484 5.24984 3.08317C5.24984 2.3915 5.80817 1.83317 6.49984 1.83317ZM12.3665 7.50817C13.3332 8.20817 13.9998 9.1415 13.9998 10.3748V11.8332H17.3332V10.3748C17.3332 8.6915 14.4165 7.73317 12.3665 7.50817ZM11.4998 5.99984C13.1082 5.99984 14.4165 4.6915 14.4165 3.08317C14.4165 1.47484 13.1082 0.166504 11.4998 0.166504C11.0498 0.166504 10.6332 0.274837 10.2498 0.45817C10.7748 1.19984 11.0832 2.10817 11.0832 3.08317C11.0832 4.05817 10.7748 4.9665 10.2498 5.70817C10.6332 5.8915 11.0498 5.99984 11.4998 5.99984Z" fill="black"/>
</svg>
